<?xml version="1.0" encoding="UTF-8" standalone="no"?>
<!-- Created with Inkscape (http://www.inkscape.org/) -->

<svg
   xmlns:dc="http://purl.org/dc/elements/1.1/"
   xmlns:cc="http://creativecommons.org/ns#"
   xmlns:rdf="http://www.w3.org/1999/02/22-rdf-syntax-ns#"
   xmlns:svg="http://www.w3.org/2000/svg"
   xmlns="http://www.w3.org/2000/svg"
   xmlns:sodipodi="http://sodipodi.sourceforge.net/DTD/sodipodi-0.dtd"
   xmlns:inkscape="http://www.inkscape.org/namespaces/inkscape"
   width="5.5555553in"
   height="0.67989177in"
   viewBox="0 0 499.99998 61.190259"
   id="svg4649"
   version="1.1"
   inkscape:version="0.91 r13725"
   sodipodi:docname="logo.svg">
  <defs
     id="defs4651" />
  <sodipodi:namedview
     id="base"
     pagecolor="#ffffff"
     bordercolor="#666666"
     borderopacity="1.0"
     inkscape:pageopacity="0"
     inkscape:pageshadow="2"
     inkscape:zoom="0.7"
     inkscape:cx="438.91083"
     inkscape:cy="-48.456179"
     inkscape:document-units="px"
     inkscape:current-layer="layer1"
     showgrid="false"
     inkscape:window-width="1920"
     inkscape:window-height="1017"
     inkscape:window-x="-8"
     inkscape:window-y="-8"
     inkscape:window-maximized="1"
     fit-margin-top="0"
     fit-margin-left="0"
     fit-margin-right="0"
     fit-margin-bottom="0"
     units="in" />
  <metadata
     id="metadata4654">
    <rdf:RDF>
      <cc:Work
         rdf:about="">
        <dc:format>image/svg+xml</dc:format>
        <dc:type
           rdf:resource="http://purl.org/dc/dcmitype/StillImage" />
        <dc:title></dc:title>
      </cc:Work>
    </rdf:RDF>
  </metadata>
  <g
     inkscape:label="Layer 1"
     inkscape:groupmode="layer"
     id="layer1"
     transform="translate(646.73791,-431.22897)">
    <g
       id="g4197">
      <path
         sodipodi:nodetypes="cssccsssscccscsscccssssscssscccc"
         inkscape:connector-curvature="0"
         id="path3354-7-71-60-1-4-0"
         d="m -283.14693,490.51082 c 0,0 10.4089,0.33372 15.7464,-0.0677 1.63935,-0.12325 3.34179,-0.23738 4.83775,-0.72758 3.28538,-1.07684 8.59441,-4.70054 8.59441,-4.70054 l 11.329,-7.76753 c 0,0 -2.87129,5.15255 -3.80596,7.83332 -0.19511,0.55947 -0.35802,1.13265 -0.37156,1.70887 -0.0113,0.55157 -0.0399,1.13976 0.27869,1.64316 0.28685,0.45332 0.81429,0.83643 1.39311,1.11737 0.73505,0.35681 2.50771,0.65729 2.50771,0.65729 l 1.67172,0.26289 26.28411,0 c 0,0 2.63234,-0.20639 3.90082,-0.46009 1.02901,-0.20596 2.97205,-0.85447 2.97205,-0.85447 0,0 1.79618,-0.82028 2.60057,-1.31457 0.67794,-0.41652 1.32446,-0.86897 1.85755,-1.38018 0.52665,-0.50513 1.30024,-1.64316 1.30024,-1.64316 l 0.37147,-0.92018 -23.59066,0.066 c 0,0 5.67843,-10.32141 7.80164,-15.64286 0.24094,-0.60382 0.49229,-1.21475 0.5573,-1.84036 0.0703,-0.67872 0.0851,-1.3846 -0.18565,-2.03755 -0.26949,-0.64921 -0.71257,-1.29929 -1.3932,-1.77465 -0.6506,-0.45445 -1.5312,-0.75397 -2.41475,-0.92018 -1.16728,-0.2195 -3.62222,-0.066 -3.62222,-0.066 0,0 -2.85948,0.10936 -4.17942,0.46009 -1.12336,0.29848 -2.07262,0.86159 -3.04236,1.36169 -1.76788,0.91176 -3.42181,1.93288 -5.03789,2.9763 -8.74916,5.64866 -25.1696,17.7462 -25.1696,17.7462 l 13.37427,-22.34709 -20.80444,0.066 -13.72742,28.62162"
         style="fill:#ffffff;fill-opacity:1;fill-rule:evenodd;stroke:none;stroke-width:0.28516921;stroke-linecap:butt;stroke-linejoin:miter;stroke-miterlimit:3.70000005;stroke-dasharray:none;stroke-opacity:1" />
      <path
         sodipodi:nodetypes="ccsssssscccc"
         inkscape:connector-curvature="0"
         id="path4156-20-0-7-3-1-9"
         d="m -243.63689,452.52434 23.45926,0.0495 c 0,0 -0.2372,0.65563 -0.42259,0.96618 -0.31714,0.53108 -0.68228,1.0567 -1.17032,1.51827 -0.69764,0.65997 -1.54838,1.24487 -2.47047,1.74835 -0.76517,0.41774 -1.62824,0.7446 -2.50302,1.03518 -1.03336,0.34327 -2.11775,0.61363 -3.2182,0.82818 -0.72324,0.14095 -1.46636,0.23174 -2.21044,0.299 -0.65711,0.0599 -1.98296,0.0921 -1.98296,0.0921 l -12.06005,0.0226 -1.17023,0 z"
         style="fill:#ffffff;fill-opacity:1;fill-rule:evenodd;stroke:none;stroke-width:0.28516921;stroke-linecap:butt;stroke-linejoin:miter;stroke-miterlimit:4;stroke-dasharray:none;stroke-opacity:1" />
      <g
         id="flowRoot4181-7-3-40-2-0-9"
         style="font-style:normal;font-weight:normal;font-size:40px;line-height:125%;font-family:sans-serif;letter-spacing:0px;word-spacing:0px;fill:#ffffff;fill-opacity:1;stroke:none;stroke-width:1px;stroke-linecap:butt;stroke-linejoin:miter;stroke-opacity:1"
         transform="matrix(3.001653,0,0,2.1613486,-832.73486,40.476643)">
        <path
           id="path4189"
           style="font-style:normal;font-variant:normal;font-weight:bold;font-stretch:semi-expanded;font-family:Magneto;-inkscape-font-specification:'Magneto Bold Semi-Expanded';fill:#ffffff;stroke:none"
           d="m 101.80859,180.79098 -15.976559,14.19922 1.484375,0 q 2.734375,0 2.734375,2.40234 0,0.80078 -0.371094,1.83594 l -2.070312,5.91797 8.105469,0 q -0.898438,3.125 -5.683594,3.125 l -6.835938,0 q -2.8125,0 -2.8125,-2.08985 0,-0.48828 0.175782,-1.03515 l 2.597656,-7.79297 -10.195313,9.08203 q -2.070312,1.83594 -4.765625,1.83594 l -3.28125,0 7.96875,-22.5586 -10.917968,0 2.988281,-4.92187 12.167969,0 q 3.339843,0 3.339843,2.51953 0,0.85937 -0.390625,1.99219 l -4.746093,14.08203 20.390625,-18.59375 6.093746,0 z" />
        <path
           id="path4191"
           style="font-style:normal;font-variant:normal;font-weight:bold;font-stretch:semi-expanded;font-family:Magneto;-inkscape-font-specification:'Magneto Bold Semi-Expanded';fill:#ffffff;stroke:none"
           d="m 120.89063,205.14645 q -0.9375,3.125 -4.78516,3.125 l -7.40234,0 q -3.16407,0 -3.16407,-2.03125 -2.1289,2.42187 -5.23437,2.42187 -2.285159,0 -3.71094,-1.40625 -1.425781,-1.40625 -1.425781,-3.67187 0,-4.08204 3.125,-6.44532 2.832031,-2.14843 7.011721,-2.14843 l 11.15234,0 -3.67187,10.15625 8.10547,0 z m -12.59766,-7.03125 -4.31641,0 -1.36718,4.55078 q -0.11719,0.42968 -0.11719,0.78125 0,1.69922 3.32031,1.69922 l 2.48047,-7.03125 z" />
        <path
           id="path4193"
           style="font-style:normal;font-variant:normal;font-weight:bold;font-stretch:semi-expanded;font-family:Magneto;-inkscape-font-specification:'Magneto Bold Semi-Expanded';fill:#ffffff;stroke:none"
           d="m 159.17187,205.14645 q -0.5664,3.125 -4.43359,3.125 l -7.92969,0 q -0.9375,0 -1.73828,-0.76172 -0.78125,-0.78125 -0.78125,-1.75782 0,-0.3125 0.0781,-0.60546 0.42968,-1.44532 1.28906,-4.19922 l -6.60156,5.52734 q -2.5,2.07031 -4.27735,2.07031 -2.65625,0 -2.65625,-1.99218 0,-0.64454 0.29297,-1.40625 l 1.5625,-4.19922 -7.77343,6.48437 q -0.9961,0.83985 -2.48047,0.83985 l -3.98438,0 4.66797,-13.28125 7.05078,0 -2.20703,6.25 5.99609,-4.92188 q 2.2461,-1.85547 5.03907,-1.85547 2.30468,0 2.30468,1.77735 0,0.50781 -0.21484,1.11328 l -1.40625,3.88672 5.83984,-4.96094 q 2.12891,-1.81641 4.72657,-1.81641 2.46093,0 2.46093,2.08985 0,0.70312 -0.3125,1.5625 l -2.51953,7.03125 8.00781,0 z" />
        <path
           id="path4195"
           style="font-style:normal;font-variant:normal;font-weight:bold;font-stretch:semi-expanded;font-family:Magneto;-inkscape-font-specification:'Magneto Bold Semi-Expanded';fill:#ffffff;stroke:none"
           d="m 184.40625,205.14645 q -0.9375,3.125 -4.78516,3.125 l -7.40234,0 q -3.16406,0 -3.16406,-2.03125 -2.12891,2.42187 -5.23438,2.42187 -2.28515,0 -3.71094,-1.40625 -1.42578,-1.40625 -1.42578,-3.67187 0,-4.08204 3.125,-6.44532 2.83203,-2.14843 7.01172,-2.14843 l 11.15235,0 -3.67188,10.15625 8.10547,0 z m -12.59766,-7.03125 -4.3164,0 -1.36719,4.55078 q -0.11719,0.42968 -0.11719,0.78125 0,1.69922 3.32031,1.69922 l 2.48047,-7.03125 z" />
      </g>
      <text
         transform="scale(1.1887289,0.8412347)"
         sodipodi:linespacing="125%"
         id="text4197-5-1-2-3-1-2"
         y="583.66101"
         x="-175.98781"
         style="font-style:normal;font-weight:normal;font-size:99.00267029px;line-height:125%;font-family:sans-serif;letter-spacing:0px;word-spacing:0px;fill:#ffffff;fill-opacity:1;stroke:none;stroke-width:1px;stroke-linecap:butt;stroke-linejoin:miter;stroke-opacity:1"
         xml:space="preserve"><tspan
           style="font-style:normal;font-variant:normal;font-weight:bold;font-stretch:semi-expanded;font-family:Magneto;-inkscape-font-specification:'Magneto Bold Semi-Expanded';fill:#ffffff;stroke:none"
           y="583.66101"
           x="-175.98781"
           id="tspan4199-0-3-9-6-4-6"
           sodipodi:role="line">!</tspan></text>
    </g>
  </g>
</svg>
